<svg xmlns="http://www.w3.org/2000/svg" xmlns:xlink="http://www.w3.org/1999/xlink" version="1.1" style="enable-background:new 0 0 512.001 512.001;" xml:space="preserve" width="512.001" height="512.001"><rect id="backgroundrect" width="100%" height="100%" x="0" y="0" fill="none" stroke="none"/>


















<g class="currentLayer" style=""><title>Layer 1</title><g id="svg_1" class="" stroke="#ffffff" stroke-opacity="1" fill="#ffffff" fill-opacity="1">
	<g id="svg_2" stroke="#ffffff" stroke-opacity="1" fill="#ffffff" fill-opacity="1">
		<path d="M503.839,395.379l-195.7-338.962C297.257,37.569,277.766,26.315,256,26.315c-21.765,0-41.257,11.254-52.139,30.102    L8.162,395.378c-10.883,18.85-10.883,41.356,0,60.205c10.883,18.849,30.373,30.102,52.139,30.102h391.398    c21.765,0,41.256-11.254,52.14-30.101C514.722,436.734,514.722,414.228,503.839,395.379z M477.861,440.586    c-5.461,9.458-15.241,15.104-26.162,15.104H60.301c-10.922,0-20.702-5.646-26.162-15.104c-5.46-9.458-5.46-20.75,0-30.208    L229.84,71.416c5.46-9.458,15.24-15.104,26.161-15.104c10.92,0,20.701,5.646,26.161,15.104l195.7,338.962    C483.321,419.836,483.321,431.128,477.861,440.586z" id="svg_3" stroke="#ffffff" stroke-opacity="1" fill="#ffffff" fill-opacity="1"/>
	</g>
</g><g id="svg_4" class="">
	<g id="svg_5">
		<rect x="241.00100708007812" y="176.00999450683594" width="29.996000289916992" height="149.98199462890625" id="svg_6"/>
	</g>
</g><g class="selected" id="svg_25" fill="#ffffff" fill-opacity="1">
	<g id="svg_27" fill="#ffffff" fill-opacity="1">
		<rect x="241.00100708007812" y="176.00999450683594" width="29.996000289916992" height="149.98199462890625" id="svg_6" fill="#ffffff" fill-opacity="1"/>
	</g>
</g><g id="svg_7" class="selected" fill="#ffffff" fill-opacity="1">
	<g id="svg_8" fill="#ffffff" fill-opacity="1">
		<path d="M256,355.99c-11.027,0-19.998,8.971-19.998,19.998s8.971,19.998,19.998,19.998c11.026,0,19.998-8.971,19.998-19.998    S267.027,355.99,256,355.99z" id="svg_9" fill="#ffffff" fill-opacity="1"/>
	</g>
</g><g id="svg_10">
</g><g id="svg_11">
</g><g id="svg_12">
</g><g id="svg_13">
</g><g id="svg_14">
</g><g id="svg_15">
</g><g id="svg_16">
</g><g id="svg_17">
</g><g id="svg_18">
</g><g id="svg_19">
</g><g id="svg_20">
</g><g id="svg_21">
</g><g id="svg_22">
</g><g id="svg_23">
</g><g id="svg_24">
</g></g></svg>